# Alias OBJ Model File
# Exported from SketchUp, (c) 2000-2006 Google, Inc.
# File units = meters

mtllib grass1.mtl

g Mesh1 grass1 Model

usemtl Material1
v -0.46953 0.945 -0
vt -2.20448 1.95119
vn 0 0 -1
v 0.46953 0.945 -0
vt -3.14354 1.95119
v 0.46953 0 -0
vt -3.14354 1.00619
v 0 0 -0
vt -2.67401 1.00619
v -0.46953 0 -0
vt -2.20448 1.00619
f 1/1/1 2/2/1 3/3/1 4/4/1 5/5/1 

g Mesh2 grass1 Model

v -0.022264 0.935951 -0.679072
vt -2.20448 1.95119
vn 0.983755 0.120164 0.133366
v -0.148787 0.939044 0.25142
vt -3.14354 1.95119
v -0.0366834 0.000896771 0.269782
vt -3.14354 1.00619
vt -2.87127 1.00619
v 0.0366834 -0.000896771 -0.269782
vt -2.599 1.00619
v 0.0898396 -0.00219624 -0.660711
vt -2.20448 1.00619
f 6/6/2 7/7/2 8/8/2 4/9/2 9/10/2 10/11/2 

g Mesh3 grass1 Model

v -0.0939284 0.970373 0.313419
vt -2.20448 1.95119
vn -0.785274 0.120164 -0.607376
v 0.469871 0.884099 -0.432584
vt -3.14354 1.95119
v 0.32693 -0.0500273 -0.432584
vt -2.599 1.00619
v -0.23687 0.0362462 0.313419
vt -2.20448 1.00619
f 11/12/3 12/13/3 13/8/3 4/14/3 14/15/3 

g Mesh4 grass1 Model

v -0.286567 1.0204 -0.380148
vt -2.20448 1.95119
vn 0.903063 0.120164 -0.412357
v 0.111313 0.934127 0.466068
vt -3.14354 1.95119
v 0.17784 0 0.339552
vt -3.14354 1.00619
v -0.0528783 0.0500273 -0.151143
vt -2.599 1.00619
v -0.22004 0.0862735 -0.506665
vt -2.20448 1.00619
f 15/16/4 16/17/4 17/18/4 18/19/4 19/20/4 

