# Alias OBJ Model File
# Exported from SketchUp, (c) 2000-2006 Google, Inc.
# File units = inches

mtllib grass2.mtl

g Mesh1 Group1 grasses1 Model

usemtl DVI_Nat03_0
v 0.0680278 1.91434 -3.57465
vt -0.817783 0.232108
vn -1 -1.17936e-022 1.3253e-008
v 0.0680278 2.07883 -5.83842
vt -0.938196 0.253587
v 0.0680278 1.3045 -3.04634
vt -0.789681 0.152482
v 0.0680279 0.627058 -1.39698
vt -0.701949 0.0640276
v 0.0680279 0.603558 -1.36565
vt -0.700282 0.0609592
v 0.0680279 0.580058 -1.33431
vt -0.698616 0.0578908
v 0.0680279 0.556558 -1.30299
vt -0.696949 0.0548224
v 0.0680279 0.470393 -1.9923
vt -0.733615 0.0435717
v 0.0680278 0.384224 -2.68166
vt -0.770283 0.0323206
v 0.0680278 0.298057 -3.371
vt -0.80695 0.0210697
v 0.0680279 0.222776 -1.2133
vt -0.692179 0.0112401
v 0.0680279 0.136691 2.37779
vt -0.501163 -2.65448e-055
v 0.068028 0.277711 5.85672
vt -0.316114 0.018413
v 0.068028 0.645334 7.53045
vt -0.227086 0.0664139
v 0.068028 0.676668 5.98727
vt -0.30917 0.0705052
v 0.0680279 0.708005 4.44403
vt -0.391257 0.0745969
v 0.0680279 0.739336 2.90091
vt -0.473338 0.0786878
v 0.068028 1.42082 5.72083
vt -0.323342 0.167669
v 0.068028 2.10235 8.54096
vt -0.173335 0.256657
v 0.068028 2.78385 11.361
vt -0.0233339 0.345642
v 0.068028 2.76035 10.5777
vt -0.0649997 0.342573
v 0.068028 2.38434 7.99258
vt -0.202504 0.293477
v 0.0680279 2.00833 5.4075
vt -0.340009 0.244381
v 0.0680279 1.87255 3.80957
vt -0.425005 0.226652
v 0.0680279 2.21722 4.18557
vt -0.405005 0.271656
v 0.0680279 2.5619 4.56159
vt -0.385004 0.316662
v 0.0680279 2.90656 4.93757
vt -0.365004 0.361664
v 0.0680279 2.82039 4.80441
vt -0.372088 0.350413
v 0.0680279 2.73423 4.67124
vt -0.379171 0.339162
v 0.0680279 2.64806 4.53807
vt -0.386255 0.327911
v 0.068028 4.04493 6.17516
vt -0.299175 0.510302
v 0.068028 6.1835 8.69758
vt -0.165004 0.789536
v 0.068028 8.32207 11.22
vt -0.0308332 1.06877
v 0.068028 8.94351 11.7997
vt 0 1.14991
v 0.068028 6.53082 8.49397
vt -0.175835 0.834886
v 0.0680279 4.11805 5.18815
vt -0.351676 0.519848
v 0.0680279 1.70545 1.88257
vt -0.527505 0.204834
v 0.0680279 4.63091 2.73494
vt -0.482166 0.586813
v 0.0680279 7.74921 3.42534
vt -0.445442 0.993972
v 0.0680279 10.9971 4.0491
vt -0.412264 1.41806
v 0.0680279 10.5259 3.7626
vt -0.427503 1.35652
v 0.0680279 8.16795 3.01841
vt -0.467088 1.04865
v 0.0680279 5.81004 2.27422
vt -0.506672 0.740773
v 0.0680279 4.69253 1.82251
vt -0.530699 0.594859
v 0.0680279 6.05554 1.95568
vt -0.523616 0.772828
v 0.0680279 7.4186 2.08885
vt -0.516532 0.950804
v 0.0680279 8.78156 2.22202
vt -0.509449 1.12877
v 0.0680279 6.75279 1.7677
vt -0.533615 0.863868
v 0.0680279 4.72386 1.31335
vt -0.557783 0.59895
v 0.0680279 2.69501 0.859007
vt -0.58195 0.334042
v 0.0680279 3.75821 0.503738
vt -0.600847 0.472864
v 0.0680279 6.70497 0.370843
vt -0.607916 0.857625
v 0.0680279 9.68048 0.179592
vt -0.618089 1.24614
v 0.0680279 10.552 -0.138427
vt -0.635005 1.35993
v 0.0680279 7.7946 -0.169757
vt -0.636671 0.999899
v 0.0680279 5.03715 -0.201092
vt -0.638338 0.639856
v 0.0680279 2.27989 -0.232429
vt -0.640005 0.279839
v 0.0680279 3.25903 -0.569254
vt -0.657921 0.407686
v 0.0680279 4.23824 -0.906101
vt -0.675838 0.535542
v 0.0680279 5.21742 -1.24294
vt -0.693755 0.663394
v 0.0680279 5.00592 -1.24554
vt -0.693894 0.635778
v 0.0680279 4.19906 -1.08104
vt -0.685143 0.530426
v 0.0680279 3.3922 -0.916532
vt -0.676393 0.425074
v 0.0680279 3.81116 -1.50028
vt -0.707444 0.479777
v 0.0680278 6.59957 -3.74888
vt -0.82705 0.843862
v 0.0680278 9.41799 -6.0068
vt -0.947152 1.21186
v 0.0680278 12.4632 -7.96132
vt -1.05112 1.60948
v 0.0680278 10.5833 -6.80202
vt -0.989451 1.36402
v 0.0680278 8.7032 -5.64263
vt -0.927781 1.11853
v 0.0680278 6.82318 -4.48329
vt -0.866114 0.87306
v 0.0680278 7.28273 -5.37626
vt -0.913612 0.933063
v 0.0680278 8.91211 -7.29548
vt -1.0157 1.14581
v 0.0680278 10.5415 -9.21472
vt -1.11779 1.35856
v 0.0680278 10.637 -9.53798
vt -1.13498 1.37103
v 0.0680278 7.79332 -6.5959
vt -0.978487 0.999731
v 0.0680278 4.91396 -3.70377
vt -0.824651 0.623772
v 0.0680279 1.70545 -1.06798
vt -0.684449 0.204834
v 0.0680278 2.68613 -2.96956
vt -0.785597 0.332882
v 0.0680278 3.82921 -4.47785
vt -0.865825 0.482135
v 0.0680278 5.15916 -5.87718
vt -0.940257 0.655787
v 0.0680278 5.3088 -6.097
vt -0.95195 0.675326
v 0.0680278 4.79962 -5.68965
vt -0.930283 0.608841
v 0.0680278 4.29043 -5.28231
vt -0.908615 0.542357
v 0.0680278 4.42097 -5.6896
vt -0.93028 0.559401
v 0.0680278 5.83098 -7.72629
vt -1.03861 0.743508
v 0.0680277 7.24105 -9.76304
vt -1.14695 0.92762
v 0.0680277 8.65101 -11.7997
vt -1.25528 1.11172
v 0.0680277 7.18621 -10.092
vt -1.16445 0.920461
v 0.0680278 5.72132 -8.38429
vt -1.07361 0.729188
v 0.0680278 4.25647 -6.67661
vt -0.98278 0.537922
v 0.0680278 4.34786 -7.15182
vt -1.00806 0.549856
v 0.0680278 5.21739 -8.71854
vt -1.09139 0.663391
v 0.0680277 6.08692 -10.2853
vt -1.17473 0.776926
v 0.0680277 6.19137 -10.5542
vt -1.18904 0.790564
v 0.0680278 4.76569 -8.22769
vt -1.06528 0.604412
v 0.0680278 3.33996 -5.90109
vt -0.941529 0.418254
f 1/1/1 2/2/1 3/3/1 4/4/1 5/5/1 6/6/1 7/7/1 8/8/1 9/9/1 10/10/1 11/11/1 12/12/1 13/13/1 14/14/1 15/15/1 16/16/1 17/17/1 18/18/1 19/19/1 20/20/1 21/21/1 22/22/1 23/23/1 24/24/1 25/25/1 26/26/1 27/27/1 28/28/1 29/29/1 30/30/1 31/31/1 32/32/1 33/33/1 34/34/1 35/35/1 36/36/1 37/37/1 38/38/1 39/39/1 40/40/1 41/41/1 42/42/1 43/43/1 44/44/1 45/45/1 46/46/1 47/47/1 48/48/1 49/49/1 50/50/1 51/51/1 52/52/1 53/53/1 54/54/1 55/55/1 56/56/1 57/57/1 58/58/1 59/59/1 60/60/1 61/61/1 62/62/1 63/63/1 64/64/1 65/65/1 66/66/1 67/67/1 68/68/1 69/69/1 70/70/1 71/71/1 72/72/1 73/73/1 74/74/1 75/75/1 76/76/1 77/77/1 78/78/1 79/79/1 80/80/1 81/81/1 82/82/1 83/83/1 84/84/1 85/85/1 86/86/1 87/87/1 88/88/1 89/89/1 90/90/1 91/91/1 92/92/1 93/93/1 94/94/1 95/95/1 96/96/1 

g Mesh2 Group3 Group2 grasses1 Model

v 3.64268 1.91434 1.5819e-014
vt -0.817783 0.232108
vn 0 8.89887e-015 -1
v 5.90645 2.07883 1.72829e-014
v 3.11437 1.3045 1.03922e-014
vt -0.789681 0.152482
v 1.46501 0.627058 4.36371e-015
vt -0.701949 0.0640276
v 1.43368 0.603558 4.15459e-015
vt -0.700282 0.0609592
v 1.40234 0.580058 3.94547e-015
vt -0.698616 0.0578908
v 1.37101 0.556558 3.73634e-015
vt -0.696949 0.0548224
v 2.06032 0.470393 2.96957e-015
vt -0.733615 0.0435717
v 2.74969 0.384224 2.20277e-015
vt -0.770283 0.0323206
v 3.43903 0.298057 1.43598e-015
vt -0.80695 0.0210697
v 1.28133 0.222776 7.66057e-016
vt -0.692179 0.0112401
v -2.30976 0.136691 -0
vt -0.501163 0
v -5.78869 0.277711 1.25492e-015
vt -0.316114 0.018413
v -7.46242 0.645334 4.52635e-015
vt -0.227086 0.0664139
v -5.91924 0.676668 4.80519e-015
vt -0.30917 0.0705052
v -4.376 0.708005 5.08405e-015
vt -0.391257 0.0745969
v -2.83288 0.739336 5.36286e-015
vt -0.473338 0.0786878
v -5.65281 1.42082 1.14273e-014
vt -0.323342 0.167669
v -8.47293 2.10235 1.74921e-014
vt -0.173335 0.256657
v -11.293 2.78385 2.35568e-014
vt -0.0233339 0.345642
v -10.5096 2.76035 2.33476e-014
vt -0.0649997 0.342573
v -7.92455 2.38434 2.00015e-014
vt -0.202504 0.293477
v -5.33947 2.00833 1.66554e-014
vt -0.340009 0.244381
v -3.74154 1.87255 1.54472e-014
vt -0.425005 0.226652
v -4.11754 2.21722 1.85144e-014
vt -0.405005 0.271656
v -4.49356 2.5619 2.15816e-014
vt -0.385004 0.316662
v -4.86955 2.90656 2.46487e-014
vt -0.365004 0.361664
v -4.73638 2.82039 2.38819e-014
vt -0.372088 0.350413
v -4.60321 2.73423 2.31151e-014
vt -0.379171 0.339162
v -4.47004 2.64806 2.23483e-014
vt -0.386255 0.327911
v -6.10714 4.04493 3.47789e-014
vt -0.299175 0.510302
v -8.62955 6.1835 5.38098e-014
vt -0.165004 0.789536
v -11.152 8.32207 7.28406e-014
vt -0.0308332 1.06877
v -11.7316 8.94351 7.83707e-014
v -8.42594 6.53082 5.69005e-014
vt -0.175835 0.834886
v -5.12012 4.11805 3.54296e-014
vt -0.351676 0.519848
v -1.81454 1.70545 1.39602e-014
vt -0.527505 0.204834
v -2.66691 4.63091 3.99934e-014
vt -0.482166 0.586813
v -3.35732 7.74921 6.77428e-014
vt -0.445442 0.993972
v -3.98108 10.9971 9.66458e-014
vt -0.412264 1.41806
v -3.69457 10.5259 9.24519e-014
vt -0.427503 1.35652
v -2.95038 8.16795 7.14691e-014
vt -0.467088 1.04865
v -2.20619 5.81004 5.04864e-014
vt -0.506672 0.740773
v -1.75449 4.69253 4.05418e-014
vt -0.530699 0.594859
v -1.88765 6.05554 5.26711e-014
vt -0.523616 0.772828
v -2.02083 7.4186 6.48008e-014
vt -0.516532 0.950804
v -2.15399 8.78156 7.69296e-014
vt -0.509449 1.12877
v -1.69967 6.75279 5.88757e-014
vt -0.533615 0.863868
v -1.24532 4.72386 4.08206e-014
vt -0.557783 0.59895
v -0.790979 2.69501 2.27662e-014
vt -0.58195 0.334042
v -0.43571 3.75821 3.22274e-014
vt -0.600847 0.472864
v -0.302815 6.70497 5.84503e-014
vt -0.607916 0.857625
v -0.111564 9.68048 8.49289e-014
vt -0.618089 1.24614
v 0.206454 10.552 9.26841e-014
vt -0.635005 1.35993
v 0.237785 7.7946 6.81467e-014
vt -0.636671 0.999899
v 0.26912 5.03715 4.36085e-014
vt -0.638338 0.639856
v 0.300457 2.27989 1.90721e-014
vt -0.640005 0.279839
v 0.637282 3.25903 2.77853e-014
vt -0.657921 0.407686
v 0.974129 4.23824 3.64992e-014
vt -0.675838 0.535542
v 1.31096 5.21742 4.52127e-014
vt -0.693755 0.663394
v 1.31357 5.00592 4.33306e-014
vt -0.693894 0.635778
v 1.14906 4.19906 3.61504e-014
vt -0.685143 0.530426
v 0.98456 3.3922 2.89703e-014
vt -0.676393 0.425074
v 1.56831 3.81116 3.26986e-014
vt -0.707444 0.479777
v 3.81691 6.59957 5.75123e-014
vt -0.82705 0.843862
v 6.07483 9.41799 8.2593e-014
vt -0.947152 1.21186
v 8.02935 12.4632 1.09692e-013
vt -1.05112 1.60948
v 6.87005 10.5833 9.29628e-014
v 5.71066 8.7032 7.62322e-014
v 4.55132 6.82318 5.95022e-014
vt -0.866114 0.87306
v 5.44428 7.28273 6.35917e-014
vt -0.913612 0.933063
v 7.36351 8.91211 7.80913e-014
vt -1.0157 1.14581
v 9.28274 10.5415 9.2591e-014
v 9.60601 10.637 9.34408e-014
vt -1.13498 1.37103
v 6.66393 7.79332 6.81353e-014
vt -0.978487 0.999731
v 3.7718 4.91396 4.25123e-014
vt -0.824651 0.623772
v 1.13601 1.70545 1.39602e-014
vt -0.684449 0.204834
v 3.03759 2.68613 2.26871e-014
vt -0.785597 0.332882
v 4.54588 3.82921 3.28592e-014
vt -0.865825 0.482135
v 5.9452 5.15916 4.46943e-014
vt -0.940257 0.655787
v 6.16503 5.3088 4.60259e-014
vt -0.95195 0.675326
v 5.75768 4.79962 4.14948e-014
vt -0.930283 0.608841
v 5.35034 4.29043 3.69636e-014
vt -0.908615 0.542357
v 5.75763 4.42097 3.81253e-014
vt -0.93028 0.559401
v 7.79431 5.83098 5.06728e-014
vt -1.03861 0.743508
v 9.83107 7.24105 6.32207e-014
vt -1.14695 0.92762
v 11.8677 8.65101 7.57678e-014
vt -1.25528 1.11172
v 10.1601 7.18621 6.27328e-014
vt -1.16445 0.920461
v 8.45232 5.72132 4.96968e-014
vt -1.07361 0.729188
v 6.74464 4.25647 3.66614e-014
vt -0.98278 0.537922
v 7.21985 4.34786 3.74747e-014
vt -1.00806 0.549856
v 8.78657 5.21739 4.52125e-014
vt -1.09139 0.663391
v 10.3533 6.08692 5.29503e-014
vt -1.17473 0.776926
v 10.6222 6.19137 5.38798e-014
vt -1.18904 0.790564
v 8.29572 4.76569 4.11929e-014
vt -1.06528 0.604412
v 5.96912 3.33996 2.85055e-014
vt -0.941529 0.418254
f 97/97/2 98/2/2 99/98/2 100/99/2 101/100/2 102/101/2 103/102/2 104/103/2 105/104/2 106/105/2 107/106/2 108/107/2 109/108/2 110/109/2 111/110/2 112/111/2 113/112/2 114/113/2 115/114/2 116/115/2 117/116/2 118/117/2 119/118/2 120/119/2 121/120/2 122/121/2 123/122/2 124/123/2 125/124/2 126/125/2 127/126/2 128/127/2 129/128/2 130/34/2 131/129/2 132/130/2 133/131/2 134/132/2 135/133/2 136/134/2 137/135/2 138/136/2 139/137/2 140/138/2 141/139/2 142/140/2 143/141/2 144/142/2 145/143/2 146/144/2 147/145/2 148/146/2 149/147/2 150/148/2 151/149/2 152/150/2 153/151/2 154/152/2 155/153/2 156/154/2 157/155/2 158/156/2 159/157/2 160/158/2 161/159/2 162/160/2 163/161/2 164/68/2 165/69/2 166/162/2 167/163/2 168/164/2 169/73/2 170/165/2 171/166/2 172/167/2 173/168/2 174/169/2 175/170/2 176/171/2 177/172/2 178/173/2 179/174/2 180/175/2 181/176/2 182/177/2 183/178/2 184/179/2 185/180/2 186/181/2 187/182/2 188/183/2 189/184/2 190/185/2 191/186/2 192/187/2 

g Mesh3 Group4 Group2 grasses1 Model

v 0.0680278 1.91434 -3.57465
v 0.0680278 1.3045 -3.04634
v 0.0680279 0.627058 -1.39698
v 0.0680279 0.603558 -1.36565
v 0.0680279 0.580058 -1.33431
v 0.0680279 0.556558 -1.30299
v 0.0680279 0.470393 -1.9923
v 0.0680278 0.384224 -2.68166
v 0.0680278 0.298057 -3.371
v 0.0680279 0.222776 -1.2133
v 0.0680279 0.136691 2.37779
v 0.068028 0.277711 5.85672
v 0.068028 0.645334 7.53045
v 0.068028 0.676668 5.98727
v 0.0680279 0.708005 4.44403
v 0.0680279 0.739336 2.90091
v 0.068028 1.42082 5.72083
v 0.068028 2.10235 8.54096
v 0.068028 2.78385 11.361
v 0.068028 2.76035 10.5777
v 0.068028 2.38434 7.99258
v 0.0680279 2.00833 5.4075
v 0.0680279 1.87255 3.80957
v 0.0680279 2.21722 4.18557
v 0.0680279 2.5619 4.56159
v 0.0680279 2.90656 4.93757
v 0.0680279 2.82039 4.80441
v 0.0680279 2.73423 4.67124
v 0.0680279 2.64806 4.53807
v 0.068028 4.04493 6.17516
v 0.068028 6.1835 8.69758
v 0.068028 6.53082 8.49397
v 0.0680279 4.11805 5.18815
v 0.0680279 1.70545 1.88257
v 0.0680279 4.63091 2.73494
v 0.0680279 7.74921 3.42534
v 0.0680279 10.9971 4.0491
v 0.0680279 10.5259 3.7626
v 0.0680279 8.16795 3.01841
v 0.0680279 5.81004 2.27422
v 0.0680279 4.69253 1.82251
v 0.0680279 6.05554 1.95568
v 0.0680279 7.4186 2.08885
v 0.0680279 8.78156 2.22202
v 0.0680279 6.75279 1.7677
v 0.0680279 4.72386 1.31335
v 0.0680279 2.69501 0.859007
v 0.0680279 3.75821 0.503738
v 0.0680279 6.70497 0.370843
v 0.0680279 9.68048 0.179592
v 0.0680279 10.552 -0.138427
v 0.0680279 7.7946 -0.169757
v 0.0680279 5.03715 -0.201092
v 0.0680279 2.27989 -0.232429
v 0.0680279 3.25903 -0.569254
v 0.0680279 4.23824 -0.906101
v 0.0680279 5.21742 -1.24294
v 0.0680279 5.00592 -1.24554
v 0.0680279 4.19906 -1.08104
v 0.0680279 3.3922 -0.916532
v 0.0680279 3.81116 -1.50028
v 0.0680278 6.59957 -3.74888
v 0.0680278 9.41799 -6.0068
v 0.0680278 12.4632 -7.96132
v 0.0680278 8.7032 -5.64263
v 0.0680278 6.82318 -4.48329
v 0.0680278 7.28273 -5.37626
v 0.0680278 8.91211 -7.29548
v 0.0680278 10.637 -9.53798
v 0.0680278 7.79332 -6.5959
v 0.0680278 4.91396 -3.70377
v 0.0680279 1.70545 -1.06798
v 0.0680278 2.68613 -2.96956
v 0.0680278 3.82921 -4.47785
v 0.0680278 5.15916 -5.87718
v 0.0680278 5.3088 -6.097
v 0.0680278 4.79962 -5.68965
v 0.0680278 4.29043 -5.28231
v 0.0680278 4.42097 -5.6896
v 0.0680278 5.83098 -7.72629
v 0.0680277 7.24105 -9.76304
v 0.0680277 8.65101 -11.7997
v 0.0680277 7.18621 -10.092
v 0.0680278 5.72132 -8.38429
v 0.0680278 4.34786 -7.15182
v 0.0680278 5.21739 -8.71854
v 0.0680277 6.08692 -10.2853
v 0.0680277 6.19137 -10.5542
v 0.0680278 4.76569 -8.22769
v 0.0680278 3.33996 -5.90109
f 193/97/1 2/2/1 194/98/1 195/99/1 196/100/1 197/101/1 198/102/1 199/103/1 200/104/1 201/105/1 202/106/1 203/107/1 204/108/1 205/109/1 206/110/1 207/111/1 208/112/1 209/113/1 210/114/1 211/115/1 212/116/1 213/117/1 214/118/1 215/119/1 216/120/1 217/121/1 218/122/1 219/123/1 220/124/1 221/125/1 222/126/1 223/127/1 33/128/1 34/34/1 224/129/1 225/130/1 226/131/1 227/132/1 228/133/1 229/134/1 230/135/1 231/136/1 232/137/1 233/138/1 234/139/1 235/140/1 236/141/1 237/142/1 238/143/1 239/144/1 240/145/1 241/146/1 242/147/1 243/148/1 244/149/1 245/150/1 246/151/1 247/152/1 248/153/1 249/154/1 250/155/1 251/156/1 252/157/1 253/158/1 254/159/1 255/160/1 256/161/1 68/68/1 257/69/1 258/162/1 259/163/1 260/164/1 73/73/1 261/165/1 262/166/1 263/167/1 264/168/1 265/169/1 266/170/1 267/171/1 268/172/1 269/173/1 270/174/1 271/175/1 272/176/1 273/177/1 274/178/1 275/179/1 276/180/1 90/181/1 277/182/1 278/183/1 279/184/1 280/185/1 281/186/1 282/187/1 

g Mesh4 Group6 Group5 grasses1 Model

v 2.59569 1.91434 2.52766
vn 0.707107 8.89887e-015 -0.707107
v 4.19642 2.07883 4.12839
v 2.22211 1.3045 2.15409
v 1.05584 0.627058 0.987817
v 1.03369 0.603558 0.965659
v 1.01153 0.580058 0.943502
v 0.989377 0.556558 0.92135
v 1.47679 0.470393 1.40877
v 1.96425 0.384224 1.89622
v 2.45169 0.298057 2.38366
v 0.925959 0.222776 0.857931
v -1.61332 0.136691 -1.68135
v -4.0733 0.277711 -4.14133
v -5.2568 0.645334 -5.32483
v -4.16561 0.676668 -4.23364
v -3.07438 0.708005 -3.1424
v -1.98322 0.739336 -2.05125
v -3.97721 1.42082 -4.04524
v -5.97134 2.10235 -6.03937
v -7.9654 2.78385 -8.03343
v -7.41151 2.76035 -7.47954
v -5.58358 2.38434 -5.65161
v -3.75565 2.00833 -3.82368
v -2.62574 1.87255 -2.69377
v -2.89162 2.21722 -2.95965
v -3.1575 2.5619 -3.22553
v -3.42336 2.90656 -3.49139
v -3.3292 2.82039 -3.39723
v -3.23504 2.73423 -3.30306
v -3.14087 2.64806 -3.2089
v -4.29847 4.04493 -4.3665
v -6.08209 6.1835 -6.15012
v -7.86571 8.32207 -7.93373
v -8.27559 8.94351 -8.34362
v -5.93811 6.53082 -6.00614
v -3.60055 4.11805 -3.66858
v -1.26315 1.70545 -1.33118
v -1.86586 4.63091 -1.93389
v -2.35406 7.74921 -2.42208
v -2.79512 10.9971 -2.86315
v -2.59253 10.5259 -2.66056
v -2.06631 8.16795 -2.13434
v -1.54009 5.81004 -1.60811
v -1.22068 4.69253 -1.28871
v -1.31485 6.05554 -1.38288
v -1.40902 7.4186 -1.47704
v -1.50318 8.78156 -1.5712
v -1.18193 6.75279 -1.24995
v -0.860649 4.72386 -0.928677
v -0.539382 2.69501 -0.607409
v -0.288169 3.75821 -0.356197
v -0.194198 6.70497 -0.262225
v -0.0589629 9.68048 -0.126991
v 0.16591 10.552 0.0978824
v 0.188064 7.7946 0.120036
v 0.210221 5.03715 0.142194
v 0.23238 2.27989 0.164352
v 0.470551 3.25903 0.402523
v 0.708738 4.23824 0.64071
v 0.946917 5.21742 0.878889
v 0.94876 5.00592 0.880732
v 0.832436 4.19906 0.764408
v 0.716114 3.3922 0.648086
v 1.12889 3.81116 1.06086
v 2.71889 6.59957 2.65086
v 4.31548 9.41799 4.24745
v 5.69753 12.4632 5.62951
v 4.87778 10.5833 4.80975
v 4.05797 8.7032 3.98994
v 3.23819 6.82318 3.17017
v 3.86962 7.28273 3.80159
v 5.22671 8.91211 5.15869
v 6.58382 10.5415 6.51579
v 6.8124 10.637 6.74437
v 4.73203 7.79332 4.664
v 2.68699 4.91396 2.61896
v 0.823207 1.70545 0.755179
v 2.16783 2.68613 2.0998
v 3.23435 3.82921 3.16632
v 4.22382 5.15916 4.15579
v 4.37926 5.3088 4.31123
v 4.09122 4.79962 4.02319
v 3.80318 4.29043 3.73516
v 4.09119 4.42097 4.02316
v 5.53134 5.83098 5.46331
v 6.97154 7.24105 6.90351
v 8.41165 8.65101 8.34362
v 7.20417 7.18621 7.13615
v 5.99662 5.72132 5.92859
v 4.78911 4.25647 4.72108
v 5.12513 4.34786 5.0571
v 6.23297 5.21739 6.16494
v 7.34081 6.08692 7.27278
v 7.53098 6.19137 7.46296
v 5.88589 4.76569 5.81786
v 4.24073 3.33996 4.1727
f 283/97/3 284/2/3 285/98/3 286/99/3 287/100/3 288/101/3 289/102/3 290/103/3 291/104/3 292/105/3 293/106/3 294/107/3 295/108/3 296/109/3 297/110/3 298/111/3 299/112/3 300/113/3 301/114/3 302/115/3 303/116/3 304/117/3 305/118/3 306/119/3 307/120/3 308/121/3 309/122/3 310/123/3 311/124/3 312/125/3 313/126/3 314/127/3 315/128/3 316/34/3 317/129/3 318/130/3 319/131/3 320/132/3 321/133/3 322/134/3 323/135/3 324/136/3 325/137/3 326/138/3 327/139/3 328/140/3 329/141/3 330/142/3 331/143/3 332/144/3 333/145/3 334/146/3 335/147/3 336/148/3 337/149/3 338/150/3 339/151/3 340/152/3 341/153/3 342/154/3 343/155/3 344/156/3 345/157/3 346/158/3 347/159/3 348/160/3 349/161/3 350/68/3 351/69/3 352/162/3 353/163/3 354/164/3 355/73/3 356/165/3 357/166/3 358/167/3 359/168/3 360/169/3 361/170/3 362/171/3 363/172/3 364/173/3 365/174/3 366/175/3 367/176/3 368/177/3 369/178/3 370/179/3 371/180/3 372/181/3 373/182/3 374/183/3 375/184/3 376/185/3 377/186/3 378/187/3 

g Mesh5 Group7 Group5 grasses1 Model

v 2.59569 1.91434 -2.52766
vn -0.707107 -1.17936e-022 -0.707107
v 4.19642 2.07883 -4.12839
v 2.22211 1.3045 -2.15409
v 1.05584 0.627058 -0.987817
v 1.03369 0.603558 -0.965659
v 1.01153 0.580058 -0.943502
v 0.989377 0.556558 -0.92135
v 1.47679 0.470393 -1.40877
v 1.96425 0.384224 -1.89622
v 2.45169 0.298057 -2.38366
v 0.925959 0.222776 -0.857931
v -1.61332 0.136691 1.68135
v -4.0733 0.277711 4.14133
v -5.2568 0.645334 5.32483
v -4.16561 0.676668 4.23364
v -3.07438 0.708005 3.1424
v -1.98322 0.739336 2.05125
v -3.97721 1.42082 4.04524
v -5.97134 2.10235 6.03937
v -7.9654 2.78385 8.03343
v -7.41151 2.76035 7.47954
v -5.58358 2.38434 5.65161
v -3.75565 2.00833 3.82368
v -2.62574 1.87255 2.69377
v -2.89162 2.21722 2.95965
v -3.1575 2.5619 3.22553
v -3.42336 2.90656 3.49139
v -3.3292 2.82039 3.39723
v -3.23504 2.73423 3.30306
v -3.14087 2.64806 3.2089
v -4.29847 4.04493 4.3665
v -6.08209 6.1835 6.15012
v -7.86571 8.32207 7.93373
v -8.27559 8.94351 8.34362
v -5.93811 6.53082 6.00614
v -3.60055 4.11805 3.66858
v -1.26315 1.70545 1.33118
v -1.86586 4.63091 1.93389
v -2.35406 7.74921 2.42208
v -2.79512 10.9971 2.86315
v -2.59253 10.5259 2.66056
v -2.06631 8.16795 2.13434
v -1.54009 5.81004 1.60811
v -1.22068 4.69253 1.28871
v -1.31485 6.05554 1.38288
v -1.40902 7.4186 1.47704
v -1.50318 8.78156 1.5712
v -1.18193 6.75279 1.24995
v -0.860649 4.72386 0.928677
v -0.539381 2.69501 0.607409
v -0.288169 3.75821 0.356197
v -0.194198 6.70497 0.262225
v -0.0589629 9.68048 0.126991
v 0.16591 10.552 -0.0978824
v 0.188064 7.7946 -0.120036
v 0.210221 5.03715 -0.142194
v 0.23238 2.27989 -0.164352
v 0.470551 3.25903 -0.402523
v 0.708738 4.23824 -0.64071
v 0.946917 5.21742 -0.878889
v 0.94876 5.00592 -0.880732
v 0.832436 4.19906 -0.764408
v 0.716114 3.3922 -0.648086
v 1.12889 3.81116 -1.06086
v 2.71889 6.59957 -2.65086
v 4.31548 9.41799 -4.24745
v 5.69753 12.4632 -5.62951
v 4.87778 10.5833 -4.80975
v 4.05797 8.7032 -3.98994
v 3.23819 6.82318 -3.17017
v 3.86962 7.28273 -3.80159
v 5.22671 8.91211 -5.15869
v 6.58382 10.5415 -6.51579
v 6.8124 10.637 -6.74437
v 4.73203 7.79332 -4.66401
v 2.68699 4.91396 -2.61896
v 0.823207 1.70545 -0.755179
v 2.16783 2.68613 -2.0998
v 3.23435 3.82921 -3.16632
v 4.22382 5.15916 -4.15579
v 4.37926 5.3088 -4.31123
v 4.09122 4.79962 -4.02319
v 3.80318 4.29043 -3.73516
v 4.09119 4.42097 -4.02316
v 5.53134 5.83098 -5.46331
v 6.97154 7.24105 -6.90351
v 8.41165 8.65101 -8.34362
v 7.20417 7.18621 -7.13615
v 5.99662 5.72132 -5.92859
v 4.78911 4.25647 -4.72108
v 5.12513 4.34786 -5.0571
v 6.23297 5.21739 -6.16494
v 7.34081 6.08692 -7.27278
v 7.53098 6.19137 -7.46296
v 5.88589 4.76569 -5.81786
v 4.24073 3.33996 -4.1727
f 379/97/4 380/2/4 381/98/4 382/99/4 383/100/4 384/101/4 385/102/4 386/103/4 387/104/4 388/105/4 389/106/4 390/107/4 391/108/4 392/109/4 393/110/4 394/111/4 395/112/4 396/113/4 397/114/4 398/115/4 399/116/4 400/117/4 401/118/4 402/119/4 403/120/4 404/121/4 405/122/4 406/123/4 407/124/4 408/125/4 409/126/4 410/127/4 411/128/4 412/34/4 413/129/4 414/130/4 415/131/4 416/132/4 417/133/4 418/134/4 419/135/4 420/136/4 421/137/4 422/138/4 423/139/4 424/140/4 425/141/4 426/142/4 427/143/4 428/144/4 429/145/4 430/146/4 431/147/4 432/148/4 433/149/4 434/150/4 435/151/4 436/152/4 437/153/4 438/154/4 439/155/4 440/156/4 441/157/4 442/158/4 443/159/4 444/160/4 445/161/4 446/68/4 447/69/4 448/162/4 449/163/4 450/164/4 451/73/4 452/165/4 453/166/4 454/167/4 455/168/4 456/169/4 457/170/4 458/171/4 459/172/4 460/173/4 461/174/4 462/175/4 463/176/4 464/177/4 465/178/4 466/179/4 467/180/4 468/181/4 469/182/4 470/183/4 471/184/4 472/185/4 473/186/4 474/187/4 

