# Alias OBJ Model File
# Exported from SketchUp, (c) 2000-2006 Google, Inc.
# File units = inches

mtllib Strauch_01.mtl

g Mesh1 Group3 Group2 Group1 Model

usemtl Color_000
v 32.5474 1.18432 77.3222
vt 0 0
vn 0 0 1
v 130.845 1.18432 77.3222
vt 0.982974 0
v 130.845 83.9343 77.3222
vt 0.982974 0.8275
v 32.5474 83.9343 77.3222
vt 0 0.8275
f 1/1/1 2/2/1 3/3/1 4/4/1 

g Mesh2 Group4 Group2 Group1 Model

v -40.1339 1.18432 26.7022
vn -0.965926 0 -0.258819
v -65.5751 1.18432 121.65
v -65.5751 83.9343 121.65
v -40.1339 83.9343 26.7022
f 5/1/2 6/2/2 7/3/2 8/4/2 

g Mesh3 Group5 Group2 Group1 Model

v -1.45749 1.18432 -65.4337
v 96.8399 1.18432 -65.4337
v 96.8399 83.9343 -65.4337
v -1.45749 83.9343 -65.4337
f 9/1/1 10/2/1 11/3/1 12/4/1 

g Mesh4 Group6 Group2 Group1 Model

v -98.8999 1.18432 58.4675
vn -0.258819 0 0.965926
v -3.95199 1.18432 83.9087
v -3.95199 83.9343 83.9087
v -98.8999 83.9343 58.4675
f 13/1/3 14/2/3 15/3/3 16/4/3 

g Mesh5 Group7 Group2 Group1 Model

v -132.905 1.18432 -84.2883
v -37.9569 1.18432 -58.8471
v -37.9569 83.9343 -58.8471
v -132.905 83.9343 -84.2883
f 17/1/3 18/2/3 19/3/3 20/4/3 

g Mesh6 Group8 Group2 Group1 Model

v 47.0847 1.18432 -111.326
vn -1 0 -1.35308e-016
v 47.0847 1.18432 -13.029
v 47.0847 83.9343 -13.029
v 47.0847 83.9343 -111.326
f 21/1/4 22/2/4 23/3/4 24/4/4 

g Mesh7 Group9 Group2 Group1 Model

v 81.0896 1.18432 31.4295
v 81.0896 1.18432 129.727
v 81.0896 83.9343 129.727
v 81.0896 83.9343 31.4295
f 25/1/4 26/2/4 27/3/4 28/4/4 

g Mesh8 Group10 Group2 Group1 Model

v -64.4745 1.18432 22.3571
vn 0.535827 0 0.844328
v 18.5207 1.18432 -30.3133
v 18.5207 83.9343 -30.3133
v -64.4745 83.9343 22.3571
f 29/1/5 30/2/5 31/3/5 32/4/5 

g Mesh9 Group11 Group2 Group1 Model

v 0.284169 1.18432 38.7521
vn 0.844328 0 -0.535827
v -52.3862 1.18432 -44.2431
v -52.3862 83.9343 -44.2431
v 0.284169 83.9343 38.7521
f 33/1/6 34/2/6 35/3/6 36/4/6 

g Mesh10 Group12 Group2 Group1 Model

v -74.1388 1.18432 -116.054
v -99.58 1.18432 -21.1057
v -99.58 83.9343 -21.1057
v -74.1388 83.9343 -116.054
f 37/1/2 38/2/2 39/3/2 40/4/2 

g Mesh11 Group13 Group1 Model

v 137.252 1.18432 246.942
v 84.5817 1.18432 163.946
v 84.5817 83.9343 163.946
v 137.252 83.9343 246.942
f 41/1/6 42/2/6 43/3/6 44/4/6 

g Mesh12 Group14 Group1 Model

v 72.4934 1.18432 230.547
v 155.489 1.18432 177.876
v 155.489 83.9343 177.876
v 72.4934 83.9343 230.547
f 45/1/5 46/2/5 47/3/5 48/4/5 

