# Alias OBJ Model File
# Exported from SketchUp, (c) 2000-2006 Google, Inc.
# File units = inches

mtllib Strauch_02.mtl

g Mesh1 Group2 Group1 Model

usemtl Color_000
v -132.589 96.9062 -104.987
vt 0.95859 0.97556
vn 0.745178 1.17848e-016 -0.666865
v -36.7019 96.9062 2.16119
vt 0 0.97556
v -36.7019 -0.64988 2.16119
vt 0 0
v -132.589 -0.64988 -104.987
vt 0.95859 0
f 1/1/1 2/2/1 3/3/1 4/4/1 

g Mesh2 Group3 Group1 Model

v -32.8898 99.6545 -103.498
vn 0.666865 1.17848e-016 0.745178
v -140.038 99.6545 -7.6105
v -140.038 2.09843 -7.6105
v -32.8898 2.09843 -103.498
f 5/1/2 6/2/2 7/3/2 8/4/2 

g Mesh3 Group4 Group1 Model

v 117.307 99.6545 -140.436
vn 0 1.17848e-016 1
v -26.4818 99.6545 -140.436
v -26.4818 2.09843 -140.436
v 117.307 2.09843 -140.436
f 9/1/3 10/2/3 11/3/3 12/4/3 

g Mesh4 Group5 Group1 Model

v 44.0054 96.9062 -208.031
vn 1 1.17848e-016 9.71445e-017
v 44.0054 96.9062 -64.243
v 44.0054 -0.64988 -64.243
v 44.0054 -0.64988 -208.031
f 13/1/4 14/2/4 15/3/4 16/4/4 

g Mesh5 Group6 Group1 Model

v 78.3262 96.9062 -50.8262
vn 0.195508 1.17848e-016 -0.980702
v 219.34 96.9062 -22.7144
v 219.34 -0.64988 -22.7144
v 78.3262 -0.64988 -50.8262
f 17/1/5 18/2/5 19/3/5 20/4/5 

g Mesh6 Group7 Group1 Model

v 158.948 99.6545 -109.497
vn 0.980702 1.17848e-016 0.195508
v 130.837 99.6545 31.5163
v 130.837 2.09843 31.5163
v 158.948 2.09843 -109.497
f 21/1/6 22/2/6 23/3/6 24/4/6 

g Mesh7 Group8 Group1 Model

v -15.6154 99.6545 150.306
vn -0.892153 1.17848e-016 -0.451733
v 49.3386 99.6545 22.0247
v 49.3386 2.09843 22.0247
v -15.6154 2.09843 150.306
f 25/1/7 26/2/7 27/3/7 28/4/7 

g Mesh8 Group9 Group1 Model

v 77.7805 96.9062 115.367
vn -0.451733 1.17848e-016 0.892153
v -50.5008 96.9062 50.4128
v -50.5008 -0.64988 50.4128
v 77.7805 -0.64988 115.367
f 29/1/8 30/2/8 31/3/8 32/4/8 

g Mesh9 Group10 Group1 Model

v -216.638 96.9062 92.6316
v -75.6243 96.9062 120.743
v -75.6243 -0.64988 120.743
v -216.638 -0.64988 92.6316
f 33/1/5 34/2/5 35/3/5 36/4/5 

g Mesh10 Group11 Group1 Model

v -136.016 99.6545 33.9605
v -164.128 99.6545 174.974
v -164.128 2.09843 174.974
v -136.016 2.09843 33.9605
f 37/1/6 38/2/6 39/3/6 40/4/6 

g Mesh11 Group12 Group1 Model

v 227.371 99.6545 88.6394
v 120.223 99.6545 184.527
v 120.223 2.09843 184.527
v 227.371 2.09843 88.6394
f 41/1/2 42/2/2 43/3/2 44/4/2 

g Mesh12 Group13 Group1 Model

v 127.671 96.9062 87.1506
v 223.558 96.9062 194.299
v 223.558 -0.64988 194.299
v 127.671 -0.64988 87.1506
f 45/1/1 46/2/1 47/3/1 48/4/1 

g Mesh13 Group14 Group1 Model

v -22.8557 99.6545 -66.745
vn 0.464842 1.17848e-016 -0.885394
v 104.454 99.6545 0.0938926
v 104.454 2.09843 0.0938926
v -22.8557 2.09843 -66.745
f 49/1/9 50/2/9 51/3/9 52/4/9 

